<mxfile host="app.diagrams.net" agent="Mozilla/5.0 (Windows NT 10.0; Win64; x64) AppleWebKit/537.36 (KHTML, like Gecko) Chrome/132.0.0.0 Safari/537.36" version="26.0.14">
  <diagram name="Página-1" id="XNpdVmMqN3FSThXQY3Oi">
    <mxGraphModel dx="637" dy="319" grid="1" gridSize="10" guides="1" tooltips="1" connect="1" arrows="1" fold="1" page="1" pageScale="1" pageWidth="850" pageHeight="1100" math="0" shadow="0">
      <root>
        <mxCell id="0" />
        <mxCell id="1" parent="0" />
        <mxCell id="AqoZ53gTU4pW3USJeJQY-5" value="" style="edgeStyle=orthogonalEdgeStyle;rounded=0;orthogonalLoop=1;jettySize=auto;html=1;" edge="1" parent="1" source="AqoZ53gTU4pW3USJeJQY-1" target="AqoZ53gTU4pW3USJeJQY-4">
          <mxGeometry relative="1" as="geometry" />
        </mxCell>
        <mxCell id="AqoZ53gTU4pW3USJeJQY-1" value="Inicio" style="ellipse;whiteSpace=wrap;html=1;" vertex="1" parent="1">
          <mxGeometry x="360" y="50" width="120" height="80" as="geometry" />
        </mxCell>
        <mxCell id="AqoZ53gTU4pW3USJeJQY-11" value="" style="edgeStyle=orthogonalEdgeStyle;rounded=0;orthogonalLoop=1;jettySize=auto;html=1;" edge="1" parent="1" source="AqoZ53gTU4pW3USJeJQY-4" target="AqoZ53gTU4pW3USJeJQY-10">
          <mxGeometry relative="1" as="geometry" />
        </mxCell>
        <mxCell id="AqoZ53gTU4pW3USJeJQY-4" value="&quot;Ingrese numero&quot;" style="shape=document;whiteSpace=wrap;html=1;boundedLbl=1;" vertex="1" parent="1">
          <mxGeometry x="360" y="160" width="120" height="80" as="geometry" />
        </mxCell>
        <mxCell id="AqoZ53gTU4pW3USJeJQY-13" value="" style="edgeStyle=orthogonalEdgeStyle;rounded=0;orthogonalLoop=1;jettySize=auto;html=1;" edge="1" parent="1" source="AqoZ53gTU4pW3USJeJQY-10" target="AqoZ53gTU4pW3USJeJQY-12">
          <mxGeometry relative="1" as="geometry" />
        </mxCell>
        <mxCell id="AqoZ53gTU4pW3USJeJQY-15" value="" style="edgeStyle=orthogonalEdgeStyle;rounded=0;orthogonalLoop=1;jettySize=auto;html=1;" edge="1" parent="1" source="AqoZ53gTU4pW3USJeJQY-10" target="AqoZ53gTU4pW3USJeJQY-14">
          <mxGeometry relative="1" as="geometry" />
        </mxCell>
        <mxCell id="AqoZ53gTU4pW3USJeJQY-10" value="¿número % 2 == 0?" style="rhombus;whiteSpace=wrap;html=1;" vertex="1" parent="1">
          <mxGeometry x="345" y="270" width="150" height="140" as="geometry" />
        </mxCell>
        <mxCell id="AqoZ53gTU4pW3USJeJQY-12" value="&quot;El numero es par&quot;" style="whiteSpace=wrap;html=1;" vertex="1" parent="1">
          <mxGeometry x="520" y="430" width="120" height="60" as="geometry" />
        </mxCell>
        <mxCell id="AqoZ53gTU4pW3USJeJQY-14" value="&quot;El numero es impar&quot;" style="whiteSpace=wrap;html=1;" vertex="1" parent="1">
          <mxGeometry x="200" y="430" width="120" height="60" as="geometry" />
        </mxCell>
        <mxCell id="AqoZ53gTU4pW3USJeJQY-16" value="No" style="text;html=1;align=center;verticalAlign=middle;whiteSpace=wrap;rounded=0;" vertex="1" parent="1">
          <mxGeometry x="285" y="310" width="60" height="30" as="geometry" />
        </mxCell>
        <mxCell id="AqoZ53gTU4pW3USJeJQY-17" value="Si" style="text;html=1;align=center;verticalAlign=middle;whiteSpace=wrap;rounded=0;" vertex="1" parent="1">
          <mxGeometry x="495" y="310" width="60" height="30" as="geometry" />
        </mxCell>
        <mxCell id="AqoZ53gTU4pW3USJeJQY-22" value="" style="edgeStyle=orthogonalEdgeStyle;rounded=0;orthogonalLoop=1;jettySize=auto;html=1;entryX=0.492;entryY=0.945;entryDx=0;entryDy=0;entryPerimeter=0;" edge="1" parent="1" source="AqoZ53gTU4pW3USJeJQY-20" target="AqoZ53gTU4pW3USJeJQY-14">
          <mxGeometry relative="1" as="geometry">
            <mxPoint x="260" y="500" as="targetPoint" />
          </mxGeometry>
        </mxCell>
        <mxCell id="AqoZ53gTU4pW3USJeJQY-25" value="" style="edgeStyle=orthogonalEdgeStyle;rounded=0;orthogonalLoop=1;jettySize=auto;html=1;" edge="1" parent="1" source="AqoZ53gTU4pW3USJeJQY-20">
          <mxGeometry relative="1" as="geometry">
            <mxPoint x="580" y="490" as="targetPoint" />
          </mxGeometry>
        </mxCell>
        <mxCell id="AqoZ53gTU4pW3USJeJQY-20" value="Fin" style="ellipse;whiteSpace=wrap;html=1;" vertex="1" parent="1">
          <mxGeometry x="360" y="550" width="120" height="80" as="geometry" />
        </mxCell>
      </root>
    </mxGraphModel>
  </diagram>
</mxfile>
